<svg width="132" height="28" viewBox="0 0 132 28" fill="none" xmlns="http://www.w3.org/2000/svg">
<path d="M61.3627 12.1967L57.9453 17.439H57.8761L54.4942 12.2495V20.2081H51.8578V7.93667H54.7372L57.928 13.1261L61.1187 7.93667H63.9982V20.2081H61.3618V12.1967H61.3627ZM88.2088 7.93667H97.3486V10.3389H90.8451V12.8285H96.5676V15.2298H90.8451V17.8077H97.4351V20.209H88.2088V7.93667ZM112.108 12.1612V12.1267C112.108 11.5423 111.923 11.1035 111.553 10.8113C111.183 10.52 110.669 10.3726 110.01 10.3726H107.356V13.8971H110.063C110.722 13.8971 111.227 13.7397 111.58 13.4238C111.931 13.1088 112.108 12.6883 112.108 12.1612ZM40.2737 15.0723L38.6605 11.0926L37.0483 15.0723H40.2737ZM122.606 2.67711H9.39476L6.5035 7.93667H26.3991V10.4263H22.7049V20.2081H20.034V10.4263H5.13525L3.17164 13.9991L9.63509 25.322H44.3238L41.2277 17.4554H36.0943L34.9846 20.2072H32.2617L37.4643 7.84747H39.9268L47.0421 25.3211H71.7679V7.93485H76.7284C77.4567 7.93485 78.1076 8.03771 78.6802 8.24161C79.2528 8.44551 79.7371 8.73498 80.1367 9.1091C80.5364 9.48323 80.8414 9.93017 81.0571 10.4499C81.2701 10.9706 81.3775 11.5459 81.3775 12.1767V12.2113C81.3775 12.925 81.2501 13.5503 80.9961 14.0883C80.7421 14.6254 80.3916 15.0759 79.9474 15.4373C79.5022 15.7996 78.9815 16.0718 78.3862 16.2529C77.7908 16.4341 77.1517 16.5251 76.4699 16.5251H74.4407V25.3202H115.185L109.456 16.2793H109.422H107.357V20.2053H104.686V7.93667H110.236C111.773 7.93667 112.953 8.35176 113.775 9.18102C114.469 9.88284 114.815 10.8177 114.815 11.9865V12.022C114.815 13.0151 114.575 13.8243 114.095 14.4497C113.617 15.0759 112.988 15.5329 112.215 15.826L118.278 25.3229H122.608L128.991 14L122.606 2.67711ZM74.4398 14.1256H76.5555C77.2255 14.1256 77.7462 13.9472 78.1167 13.5913C78.4854 13.2345 78.6711 12.793 78.6711 12.2668V12.2313C78.6711 11.6242 78.4772 11.1618 78.0903 10.8468C77.7016 10.531 77.1727 10.3726 76.5027 10.3726H74.4389V14.1256H74.4398ZM124.051 28H7.94913L0 14L7.94913 0H124.051L132 14L124.051 28Z" fill="white"/>
</svg>
